<svg width="1440" height="2014" viewBox="0 0 1440 2014" fill="none" xmlns="http://www.w3.org/2000/svg">
<path d="M617.721 -75.8509H586V-45.231H617.721V-75.8509H648.348V-14.6111H677.881V14.9152H648.348V44.4415H677.881V73.9678H707.414V14.9152H735.854V44.4415H946.961V73.9678H916.334V104.588H946.961V73.9678H1006.03V44.4415H1095.72V75.0614H1126.35V165.827H1095.72V223.787H1155.88V194.26H1245.57L1244.48 224.88H1274.01V255.5H1305.73V166.921L1335.27 164.734V194.26H1364.8V164.734H1395.43V224.88H1423.87V194.26H1453.4V-99L648.348 -75.8509H617.721Z" fill="#585E8F" fill-opacity="0.2"/>
<path d="M945.9 19V43H917.9V19H895.9V-2.5H917.9V19H945.9Z" fill="#BDDBFC" fill-opacity="0.22"/>
<rect width="32.8259" height="32.8259" transform="matrix(1 0 0 -1 1276.12 75.0225)" fill="#636C95" fill-opacity="0.32"/>
<rect width="32.8259" height="32.8259" transform="matrix(1 0 0 -1 1276.12 107.848)" fill="#636C95" fill-opacity="0.32"/>
<rect width="32.8259" height="32.8259" transform="matrix(1 0 0 -1 1243.3 107.848)" fill="#636C95" fill-opacity="0.32"/>
<rect width="32.8259" height="32.8259" transform="matrix(1 0 0 -1 1210.47 140.674)" fill="#636C95" fill-opacity="0.32"/>
<rect width="32.8259" height="32.8259" transform="matrix(1 0 0 -1 1243.3 173.5)" fill="#636C95" fill-opacity="0.32"/>
<rect width="32.8259" height="32.8259" transform="matrix(1 0 0 -1 1304.57 166.935)" fill="#636C95" fill-opacity="0.32"/>
<path d="M835.68 2000.35H867.4V1969.73H835.68V2000.35H805.053V1939.11H775.519V1909.58H805.053V1880.06H775.519V1850.53H745.986V1909.58H717.547V1880.06H506.439V1850.53H537.066V1819.91H506.439V1850.53H447.373V1880.06H357.679V1849.44H327.052V1758.67H357.679V1700.71H297.519V1730.24H207.826L208.92 1699.62H179.387V1669H147.666V1757.58L118.133 1759.77V1730.24H88.5994V1759.77H57.9724V1699.62H29.5331V1730.24H-0.00012207V2023.5L805.053 2000.35H835.68Z" fill="#585E8F" fill-opacity="0.2"/>
<path d="M507.5 1905.5V1881.5H535.5V1905.5H557.5V1927H535.5V1905.5H507.5Z" fill="#BDDBFC" fill-opacity="0.22"/>
<rect width="32.8259" height="32.8259" transform="matrix(-1 0 0 1 177.275 1849.48)" fill="#636C95" fill-opacity="0.32"/>
<rect width="32.8259" height="32.8259" transform="matrix(-1 0 0 1 177.275 1816.65)" fill="#636C95" fill-opacity="0.32"/>
<rect width="32.8259" height="32.8259" transform="matrix(-1 0 0 1 210.102 1816.65)" fill="#636C95" fill-opacity="0.32"/>
<rect width="32.8259" height="32.8259" transform="matrix(-1 0 0 1 242.928 1783.83)" fill="#636C95" fill-opacity="0.32"/>
<rect width="32.8259" height="32.8259" transform="matrix(-1 0 0 1 210.102 1751)" fill="#636C95" fill-opacity="0.32"/>
<rect width="32.8259" height="32.8259" transform="matrix(-1 0 0 1 148.826 1757.57)" fill="#636C95" fill-opacity="0.32"/>
<rect width="29" height="29" transform="matrix(1 0 0 -1 181 731)" fill="#636C95"/>
<rect width="32.8259" height="32.8259" transform="matrix(1 0 0 -1 352.331 851.722)" fill="#636C95"/>
<rect width="32.8259" height="32.8259" transform="matrix(1 0 0 -1 385.157 818.896)" fill="#636C95"/>
<rect width="32.8259" height="32.8259" transform="matrix(1 0 0 -1 352.331 786.07)" fill="#636C95"/>
<rect width="32.8259" height="32.8259" transform="matrix(1 0 0 -1 654.329 641.636)" fill="#636C95"/>
<rect width="32.8259" height="32.8259" transform="matrix(1 0 0 -1 687.155 608.811)" fill="#636C95"/>
<rect width="32.8259" height="32.8259" transform="matrix(1 0 0 -1 687.155 575.985)" fill="#636C95"/>
<rect width="32.8259" height="32.8259" transform="matrix(1 0 0 -1 654.329 543.159)" fill="#636C95"/>
<rect width="32.8259" height="32.8259" transform="matrix(1 0 0 -1 621.503 575.985)" fill="#636C95"/>
<rect width="32.8259" height="32.8259" transform="matrix(1 0 0 -1 774.69 580.362)" fill="#636C95"/>
<rect width="32.8259" height="32.8259" transform="matrix(1 0 0 -1 833.777 516.898)" fill="#636C95"/>
<rect width="32.8259" height="32.8259" transform="matrix(1 0 0 -1 1076.69 700.723)" fill="#636C95"/>
<rect width="32.8259" height="32.8259" transform="matrix(1 0 0 -1 1223.31 823.273)" fill="#636C95"/>
<rect width="32.8259" height="32.8259" transform="matrix(1 0 0 -1 1256.14 790.447)" fill="#636C95"/>
<rect width="32.8259" height="32.8259" transform="matrix(1 0 0 -1 1284.59 1026.79)" fill="#636C95"/>
<rect width="32.8259" height="32.8259" transform="matrix(1 0 0 -1 1284.59 1059.62)" fill="#636C95"/>
<rect width="32.8259" height="32.8259" transform="matrix(1 0 0 -1 1251.76 1059.62)" fill="#636C95"/>
<rect width="32.8259" height="32.8259" transform="matrix(1 0 0 -1 1218.93 1092.45)" fill="#636C95"/>
<rect width="32.8259" height="32.8259" transform="matrix(1 0 0 -1 1251.76 1125.27)" fill="#636C95"/>
<rect width="32.8259" height="32.8259" transform="matrix(1 0 0 -1 1313.04 1118.71)" fill="#636C95"/>
<rect width="61.275" height="32.8259" transform="matrix(1 0 0 -1 805.328 549.724)" fill="#636C95"/>
</svg>
