<svg width="37" height="60" viewBox="0 0 37 60" fill="none" xmlns="http://www.w3.org/2000/svg">
<rect y="7.68823" width="5.76623" height="6.24675" fill="#95B3FF"/>
<rect x="5.76611" y="1.44165" width="6.24675" height="6.24675" fill="#95B3FF"/>
<rect x="12.0132" width="6.24675" height="6.24675" fill="#95B3FF"/>
<rect x="24.5063" y="1.44165" width="6.24675" height="6.24675" fill="#95B3FF"/>
<rect x="24.5063" y="13.9351" width="6.24675" height="5.76623" fill="#95B3FF"/>
<rect x="18.2598" y="15.8572" width="6.24675" height="6.24675" fill="#95B3FF"/>
<rect x="12.0132" y="15.8572" width="6.24675" height="6.24675" fill="#95B3FF"/>
<rect x="5.76611" y="13.9351" width="6.24675" height="5.76623" fill="#95B3FF"/>
<rect x="30.7534" y="7.68823" width="6.24675" height="6.24675" fill="#95B3FF"/>
<rect y="25.948" width="5.76623" height="6.24675" fill="#95B3FF"/>
<rect y="19.7014" width="5.76623" height="6.24675" fill="#95B3FF"/>
<rect x="30.7534" y="19.7014" width="6.24675" height="6.24675" fill="#95B3FF"/>
<rect x="24.5063" y="32.1948" width="6.24675" height="6.24675" fill="#95B3FF"/>
<rect x="18.2598" y="34.1169" width="6.24675" height="6.24675" fill="#95B3FF"/>
<rect x="12.0132" y="34.1169" width="6.24675" height="6.24675" fill="#95B3FF"/>
<rect x="5.76611" y="32.1948" width="6.24675" height="6.24675" fill="#95B3FF"/>
<rect x="30.7534" y="25.948" width="6.24675" height="6.24675" fill="#95B3FF"/>
<rect y="44.6882" width="5.76623" height="6.24675" fill="#95B3FF"/>
<rect y="38.4417" width="5.76623" height="6.24675" fill="#95B3FF"/>
<rect x="30.7534" y="38.4417" width="6.24675" height="6.24675" fill="#95B3FF"/>
<rect x="24.5063" y="50.9351" width="6.24675" height="6.24675" fill="#95B3FF"/>
<rect x="18.2598" y="52.8572" width="6.24675" height="6.24675" fill="#95B3FF"/>
<rect x="12.0132" y="52.8572" width="6.24675" height="6.24675" fill="#95B3FF"/>
<rect x="5.76611" y="50.9351" width="6.24675" height="6.24675" fill="#95B3FF"/>
<rect x="30.7534" y="44.6882" width="6.24675" height="6.24675" fill="#95B3FF"/>
<rect x="18.2598" width="6.24675" height="6.24675" fill="#95B3FF"/>
</svg>
