<svg width="1329" height="676" viewBox="0 0 1329 676" fill="none" xmlns="http://www.w3.org/2000/svg">
<g filter="url(#filter0_f_2007_2)">
<path d="M34.8262 14.2754V45.1016H24.5508V14.2754H34.8262ZM65.6523 45.1016V55.377H34.8262V45.1016H45.1015V14.2754H55.3769V45.1016H65.6523ZM45.1015 4.00005V14.2754H34.8262V4.00005H45.1015ZM75.9277 14.2754V45.1016H65.6523V14.2754H75.9277Z" fill="#95B3FF" fill-opacity="0.14"/>
<path d="M34.8262 75.9375V106.764H24.5508V65.6622H86.2031V75.9375H65.6523V86.2129H55.3769V75.9375H34.8262ZM65.6523 106.764V117.039H34.8262V106.764H65.6523ZM75.9277 86.2129V106.764H65.6523V86.2129H75.9277ZM96.4785 75.9375V106.764H86.2031V75.9375H96.4785Z" fill="#95B3FF" fill-opacity="0.14"/>
<path d="M75.9277 168.426V178.701H24.5508V168.426H34.8262V158.15H45.1015V168.426H75.9277ZM34.8262 137.6V158.15H24.5508V137.6H34.8262ZM45.1015 127.324V137.6H34.8262V127.324H45.1015Z" fill="#95B3FF" fill-opacity="0.14"/>
<path d="M34.8262 199.262V230.088H24.5508V199.262H34.8262ZM65.6523 230.088V240.363H34.8262V230.088H65.6523ZM65.6523 188.986V199.262H34.8262V188.986H65.6523ZM75.9277 199.262V230.088H65.6523V199.262H75.9277Z" fill="#95B3FF" fill-opacity="0.14"/>
<path d="M75.9277 291.751V302.026H4V250.649H14.2754V291.751H34.8261V271.2H45.1015V291.751H75.9277Z" fill="#95B3FF" fill-opacity="0.14"/>
<path d="M34.8262 322.587V353.413H24.5508V322.587H34.8262ZM45.1015 353.413V322.587H34.8262V312.312H75.9277V353.413H65.6523V322.587H55.3769V353.413H45.1015ZM65.6523 353.413V363.688H55.3769V353.413H65.6523Z" fill="#95B3FF" fill-opacity="0.14"/>
<path d="M75.9277 415.075V425.351H24.5508V404.8H34.8262V415.075H75.9277ZM34.8262 384.249V394.524H24.5508V384.249H34.8262ZM55.3769 394.524V404.8H34.8262V394.524H55.3769ZM75.9277 373.974V384.249H34.8262V373.974H75.9277Z" fill="#95B3FF" fill-opacity="0.14"/>
<path d="M34.8262 445.911V476.737H24.5508V445.911H34.8262ZM65.6523 476.737V487.013H34.8262V476.737H45.1015V445.911H55.3769V476.737H65.6523ZM45.1015 435.636V445.911H34.8262V435.636H45.1015ZM75.9277 445.911V476.737H65.6523V445.911H75.9277Z" fill="#95B3FF" fill-opacity="0.14"/>
<path d="M75.9277 538.4V548.676H4V538.4H34.8261V528.125H45.1015V538.4H75.9277ZM34.8261 507.574V528.125H24.5508V507.574H34.8261ZM75.9277 497.299V507.574H34.8261V497.299H75.9277Z" fill="#95B3FF" fill-opacity="0.14"/>
<path d="M34.8262 569.236V600.063H24.5508V569.236H34.8262ZM65.6523 600.063V610.338H34.8262V600.063H65.6523ZM45.1015 558.961V569.236H34.8262V558.961H45.1015ZM65.6523 558.961V569.236H55.3769V558.961H65.6523ZM75.9277 569.236V600.063H65.6523V569.236H75.9277Z" fill="#95B3FF" fill-opacity="0.14"/>
<path d="M14.2754 630.898V661.725H4V630.898H14.2754ZM34.8261 661.725V672H14.2754V661.725H34.8261ZM24.5508 620.623V630.898H14.2754V620.623H24.5508ZM45.1015 630.898V661.725H34.8261V630.898H45.1015ZM65.6523 620.623V630.898H45.1015V620.623H65.6523ZM65.6523 661.725V672H55.3769V661.725H65.6523ZM75.9277 630.898V661.725H65.6523V630.898H75.9277Z" fill="#95B3FF" fill-opacity="0.14"/>
</g>
<g filter="url(#filter1_f_2007_2)">
<path d="M1293.65 661.725V630.898H1303.93V661.725H1293.65ZM1262.83 630.898V620.623H1293.65V630.898H1283.38V661.725H1273.1V630.898H1262.83ZM1283.38 672V661.725H1293.65V672H1283.38ZM1252.55 661.725V630.898H1262.83V661.725H1252.55Z" fill="#95B3FF" fill-opacity="0.14"/>
<path d="M1293.65 600.062V569.236H1303.93V610.338H1242.28V600.062H1262.83V589.787H1273.1V600.062H1293.65ZM1262.83 569.236V558.961H1293.65V569.236H1262.83ZM1252.55 589.787V569.236H1262.83V589.787H1252.55ZM1232 600.062V569.236H1242.28V600.062H1232Z" fill="#95B3FF" fill-opacity="0.14"/>
<path d="M1252.55 507.574V497.299H1303.93V507.574H1293.65V517.85H1283.38V507.574H1252.55ZM1293.65 538.4V517.85H1303.93V538.4H1293.65ZM1283.38 548.676V538.4H1293.65V548.676H1283.38Z" fill="#95B3FF" fill-opacity="0.14"/>
<path d="M1293.65 476.738V445.912H1303.93V476.738H1293.65ZM1262.83 445.912V435.637H1293.65V445.912H1262.83ZM1262.83 487.014V476.738H1293.65V487.014H1262.83ZM1252.55 476.738V445.912H1262.83V476.738H1252.55Z" fill="#95B3FF" fill-opacity="0.14"/>
<path d="M1252.55 384.249V373.974H1324.48V425.351H1314.2V384.249H1293.65V404.8H1283.38V384.249H1252.55Z" fill="#95B3FF" fill-opacity="0.14"/>
<path d="M1293.65 353.413V322.587H1303.93V353.413H1293.65ZM1283.38 322.587V353.413H1293.65V363.688H1252.55V322.587H1262.83V353.413H1273.1V322.587H1283.38ZM1262.83 322.587V312.312H1273.1V322.587H1262.83Z" fill="#95B3FF" fill-opacity="0.14"/>
<path d="M1252.55 260.925V250.649H1303.93V271.2H1293.65V260.925H1252.55ZM1293.65 291.751V281.476H1303.93V291.751H1293.65ZM1273.1 281.476V271.2H1293.65V281.476H1273.1ZM1252.55 302.026V291.751H1293.65V302.026H1252.55Z" fill="#95B3FF" fill-opacity="0.14"/>
<path d="M1293.65 230.089V199.263H1303.93V230.089H1293.65ZM1262.83 199.263V188.987H1293.65V199.263H1283.38V230.089H1273.1V199.263H1262.83ZM1283.38 240.364V230.089H1293.65V240.364H1283.38ZM1252.55 230.089V199.263H1262.83V230.089H1252.55Z" fill="#95B3FF" fill-opacity="0.14"/>
<path d="M1252.55 137.6V127.324H1324.48V137.6H1293.65V147.875H1283.38V137.6H1252.55ZM1293.65 168.426V147.875H1303.93V168.426H1293.65ZM1252.55 178.701V168.426H1293.65V178.701H1252.55Z" fill="#95B3FF" fill-opacity="0.14"/>
<path d="M1293.65 106.764V75.9375H1303.93V106.764H1293.65ZM1262.83 75.9375V65.6621H1293.65V75.9375H1262.83ZM1283.38 117.039V106.764H1293.65V117.039H1283.38ZM1262.83 117.039V106.764H1273.1V117.039H1262.83ZM1252.55 106.764V75.9375H1262.83V106.764H1252.55Z" fill="#95B3FF" fill-opacity="0.14"/>
<path d="M1314.2 45.1015V14.2754H1324.48V45.1015H1314.2ZM1293.65 14.2754V4H1314.2V14.2754H1293.65ZM1303.93 55.3769V45.1015H1314.2V55.3769H1303.93ZM1283.38 45.1015V14.2754H1293.65V45.1015H1283.38ZM1262.83 55.3769V45.1015H1283.38V55.3769H1262.83ZM1262.83 14.2754V4H1273.1V14.2754H1262.83ZM1252.55 45.1015V14.2754H1262.83V45.1015H1252.55Z" fill="#95B3FF" fill-opacity="0.14"/>
</g>
<defs>
<filter id="filter0_f_2007_2" x="0" y="0" width="100.479" height="676" filterUnits="userSpaceOnUse" color-interpolation-filters="sRGB">
<feFlood flood-opacity="0" result="BackgroundImageFix"/>
<feBlend mode="normal" in="SourceGraphic" in2="BackgroundImageFix" result="shape"/>
<feGaussianBlur stdDeviation="2" result="effect1_foregroundBlur_2007_2"/>
</filter>
<filter id="filter1_f_2007_2" x="1228" y="0" width="100.479" height="676" filterUnits="userSpaceOnUse" color-interpolation-filters="sRGB">
<feFlood flood-opacity="0" result="BackgroundImageFix"/>
<feBlend mode="normal" in="SourceGraphic" in2="BackgroundImageFix" result="shape"/>
<feGaussianBlur stdDeviation="2" result="effect1_foregroundBlur_2007_2"/>
</filter>
</defs>
</svg>
