<svg width="23" height="37" viewBox="0 0 23 37" fill="none" xmlns="http://www.w3.org/2000/svg">
<rect y="4.77881" width="3.58442" height="3.88312" fill="white"/>
<rect x="3.5835" y="0.895996" width="3.88312" height="3.88312" fill="white"/>
<rect x="7.46826" width="3.88312" height="3.88312" fill="white"/>
<rect x="15.2339" y="0.895996" width="3.88312" height="3.88312" fill="white"/>
<rect x="15.2339" y="8.66309" width="3.88312" height="3.58442" fill="white"/>
<rect x="11.3506" y="9.85693" width="3.88312" height="3.88312" fill="white"/>
<rect x="7.46826" y="9.85693" width="3.88312" height="3.88312" fill="white"/>
<rect x="3.5835" y="8.66309" width="3.88312" height="3.58442" fill="white"/>
<rect x="19.1172" y="4.77881" width="3.88312" height="3.88312" fill="white"/>
<rect y="16.1294" width="3.58442" height="3.88312" fill="white"/>
<rect y="12.2471" width="3.58442" height="3.88312" fill="white"/>
<rect x="19.1172" y="12.2471" width="3.88312" height="3.88312" fill="white"/>
<rect x="15.2339" y="20.0132" width="3.88312" height="3.88312" fill="white"/>
<rect x="11.3506" y="21.2075" width="3.88312" height="3.88312" fill="white"/>
<rect x="7.46826" y="21.2075" width="3.88312" height="3.88312" fill="white"/>
<rect x="3.5835" y="20.0132" width="3.88312" height="3.88312" fill="white"/>
<rect x="19.1172" y="16.1294" width="3.88312" height="3.88312" fill="white"/>
<rect y="27.7788" width="3.58442" height="3.88312" fill="white"/>
<rect y="23.896" width="3.58442" height="3.88312" fill="white"/>
<rect x="19.1172" y="23.896" width="3.88312" height="3.88312" fill="white"/>
<rect x="15.2339" y="31.6626" width="3.88312" height="3.88312" fill="white"/>
<rect x="11.3506" y="32.8569" width="3.88312" height="3.88312" fill="white"/>
<rect x="7.46826" y="32.8569" width="3.88312" height="3.88312" fill="white"/>
<rect x="3.5835" y="31.6626" width="3.88312" height="3.88312" fill="white"/>
<rect x="19.1172" y="27.7788" width="3.88312" height="3.88312" fill="white"/>
<rect x="11.3506" width="3.88312" height="3.88312" fill="white"/>
</svg>
