<svg width="1427" height="940" viewBox="0 0 1427 940" fill="none" xmlns="http://www.w3.org/2000/svg">
<g opacity="0.1">
<rect x="60" y="879.62" width="60.3122" height="59.5583" fill="#95B3FF"/>
<rect x="120.312" y="819.308" width="59.5583" height="60.3122" fill="#95B3FF"/>
<rect width="60.3122" height="59.5583" transform="matrix(-1 -2.22652e-09 -2.22652e-09 1 629.87 674.312)" fill="#95B3FF"/>
<rect width="59.5583" height="60.3122" transform="matrix(-1 -2.22652e-09 -2.22652e-09 1 569.558 614)" fill="#95B3FF"/>
</g>
<g opacity="0.1">
<rect x="240.187" width="60.0467" height="60.0467" fill="#95B3FF"/>
<rect x="360.28" y="120.094" width="60.0467" height="60.0467" fill="#95B3FF"/>
<rect x="420.327" y="120.094" width="60.0467" height="60.0467" fill="#95B3FF"/>
<rect x="480.374" y="180.14" width="60.0467" height="60.0467" fill="#95B3FF"/>
<rect x="480.374" y="240.187" width="60.0467" height="60.0467" fill="#95B3FF"/>
<rect x="420.327" y="300.233" width="60.0467" height="60.0467" fill="#95B3FF"/>
<rect x="480.374" y="360.28" width="60.0467" height="60.0467" fill="#95B3FF"/>
<rect x="300.233" y="300.233" width="60.0467" height="60.0467" fill="#95B3FF"/>
<rect x="180.14" y="360.28" width="60.0467" height="60.0467" fill="#95B3FF"/>
<rect x="120.094" y="300.233" width="60.0467" height="60.0467" fill="#95B3FF"/>
<rect x="240.187" y="300.233" width="60.0467" height="60.0467" fill="#95B3FF"/>
<rect x="60.0469" y="240.187" width="60.0467" height="60.0467" fill="#95B3FF"/>
<rect y="180.14" width="60.0467" height="60.0467" fill="#95B3FF"/>
<rect y="60.0469" width="60.0467" height="60.0467" fill="#95B3FF"/>
<rect width="60.0467" height="60.0467" fill="#95B3FF"/>
<rect x="60.0469" width="180.14" height="60.0467" fill="#95B3FF"/>
<rect x="240.187" y="360.28" width="180.14" height="60.0467" fill="#95B3FF"/>
<rect x="360.28" y="180.14" width="120.093" height="180.14" fill="#95B3FF"/>
<rect x="60.0469" y="60.0469" width="300.233" height="240.187" fill="#95B3FF"/>
</g>
<g opacity="0.1">
<rect x="887" y="464.183" width="179.429" height="59.5583" fill="#95B3FF"/>
<rect x="946.558" y="523.741" width="60.3122" height="60.3122" fill="#95B3FF"/>
<rect x="1246.61" y="644.365" width="60.3122" height="59.5583" fill="#95B3FF"/>
<rect x="1306.92" y="644.365" width="60.3122" height="59.5583" fill="#95B3FF"/>
<rect x="1367.24" y="584.053" width="59.5583" height="60.3122" fill="#95B3FF"/>
<rect x="1246.61" y="284" width="60.3122" height="360.365" fill="#95B3FF"/>
<rect x="1367.24" y="284" width="59.5583" height="59.5583" fill="#95B3FF"/>
<rect x="1306.92" y="343.558" width="60.3122" height="300.807" fill="#95B3FF"/>
<rect x="1367.24" y="403.871" width="59.5583" height="180.183" fill="#95B3FF"/>
<rect x="1006.87" y="523.741" width="59.5583" height="60.3122" fill="#95B3FF"/>
<rect x="887" y="584.053" width="359.611" height="60.3122" fill="#95B3FF"/>
<rect x="887" y="644.365" width="359.611" height="59.5583" fill="#95B3FF"/>
<rect x="946.558" y="703.923" width="300.053" height="60.3122" fill="#95B3FF"/>
<rect x="1066.43" y="523.741" width="60.3122" height="60.3122" fill="#95B3FF"/>
<rect x="1066.43" y="403.871" width="60.3122" height="60.3122" fill="#95B3FF"/>
<rect x="1066.43" y="343.558" width="60.3122" height="60.3122" fill="#95B3FF"/>
<rect x="1126.74" y="284" width="60.3122" height="300.053" fill="#95B3FF"/>
<rect x="1187.05" y="284" width="59.5583" height="300.053" fill="#95B3FF"/>
</g>
</svg>
