<svg width="1434" height="748" viewBox="0 0 1434 748" fill="none" xmlns="http://www.w3.org/2000/svg">
<path d="M0 421.023H60.1602V389.31H30.627V360.877H60.1602V389.31H120.32V421.023H150.947V389.31H180.481V421.023H208.92V477.889H238.453V389.31H300.801V329.164H417.84V389.31H449.561V359.784H598.32V331.351H566.6V300.731H598.32V331.351H628.947V270.111H658.481V240.585H628.947V211.058H658.481V181.532H688.014V240.585H716.453V211.058H927.561V181.532H896.934V150.912H927.561V181.532H986.627V211.058H1076.32V180.439H1106.95V89.6725H1076.32V31.7134H1136.48V61.2398H1226.17L1225.08 30.6199H1254.61V0H1286.33V88.5789L1315.87 90.7661V61.2398H1345.4V90.7661H1376.03V30.6199H1404.47V61.2398H1434V450.55H1405.56V478.982H1376.03L1374.93 448.363H1345.4V478.982H1314.77V448.363H1285.24H1254.61V453.83V481.17H1225.08V508.509H1195.55V539.129H1106.95V569.749H1017.25V599.275H985.533V657.234H958.188H924.279V628.801H896.934V658.328L866.307 659.421V717.38H896.934V687.854H927.561V717.38H896.934V719.567V746.906L866.307 748H776.613V687.854H748.174V659.421L717.547 658.328V687.854H747.08V748L0 746.906V421.023Z" fill="#585E8F" fill-opacity="0.2"/>
</svg>
