<svg width="1424" height="968" viewBox="0 0 1424 968" fill="none" xmlns="http://www.w3.org/2000/svg">
<g opacity="0.1">
<rect x="431.986" y="497.62" width="60.3122" height="59.5583" fill="#95B3FF"/>
<rect x="492.299" y="437.308" width="59.5583" height="60.3122" fill="#95B3FF"/>
<rect width="60.3122" height="59.5583" transform="matrix(-1 -2.22652e-09 -2.22652e-09 1 796.875 293.312)" fill="#95B3FF"/>
<rect width="59.5583" height="60.3122" transform="matrix(-1 -2.22652e-09 -2.22652e-09 1 736.563 233)" fill="#95B3FF"/>
</g>
<g opacity="0.1">
<rect x="240.187" y="547.377" width="60.0467" height="60.0467" fill="#95B3FF"/>
<rect x="360.28" y="667.471" width="60.0467" height="60.0467" fill="#95B3FF"/>
<rect x="420.327" y="667.471" width="60.0467" height="60.0467" fill="#95B3FF"/>
<rect x="480.374" y="727.518" width="60.0467" height="60.0467" fill="#95B3FF"/>
<rect x="480.374" y="787.564" width="60.0467" height="60.0467" fill="#95B3FF"/>
<rect x="420.327" y="847.611" width="60.0467" height="60.0467" fill="#95B3FF"/>
<rect x="480.374" y="907.658" width="60.0467" height="60.0467" fill="#95B3FF"/>
<rect x="300.233" y="847.611" width="60.0467" height="60.0467" fill="#95B3FF"/>
<rect x="180.14" y="907.658" width="60.0467" height="60.0467" fill="#95B3FF"/>
<rect x="120.094" y="847.611" width="60.0467" height="60.0467" fill="#95B3FF"/>
<rect x="240.187" y="847.611" width="60.0467" height="60.0467" fill="#95B3FF"/>
<rect x="60.0469" y="787.564" width="60.0467" height="60.0467" fill="#95B3FF"/>
<rect y="727.518" width="60.0467" height="60.0467" fill="#95B3FF"/>
<rect y="607.424" width="60.0467" height="60.0467" fill="#95B3FF"/>
<rect y="547.377" width="60.0467" height="60.0467" fill="#95B3FF"/>
<rect x="60.0469" y="547.377" width="180.14" height="60.0467" fill="#95B3FF"/>
<rect x="240.187" y="907.658" width="180.14" height="60.0467" fill="#95B3FF"/>
<rect x="360.28" y="727.518" width="120.093" height="180.14" fill="#95B3FF"/>
<rect x="60.0469" y="607.424" width="300.233" height="240.187" fill="#95B3FF"/>
</g>
<g opacity="0.1">
<rect x="884.206" y="180.183" width="179.429" height="59.5583" fill="#95B3FF"/>
<rect x="943.764" y="239.741" width="60.3122" height="60.3122" fill="#95B3FF"/>
<rect x="1243.82" y="360.365" width="60.3122" height="59.5583" fill="#95B3FF"/>
<rect x="1304.13" y="360.365" width="60.3122" height="59.5583" fill="#95B3FF"/>
<rect x="1364.44" y="300.053" width="59.5583" height="60.3122" fill="#95B3FF"/>
<rect x="1243.82" width="60.3122" height="360.365" fill="#95B3FF"/>
<rect x="1364.44" width="59.5583" height="59.5583" fill="#95B3FF"/>
<rect x="1304.13" y="59.5581" width="60.3122" height="300.807" fill="#95B3FF"/>
<rect x="1364.44" y="119.871" width="59.5583" height="180.183" fill="#95B3FF"/>
<rect x="1004.08" y="239.741" width="59.5583" height="60.3122" fill="#95B3FF"/>
<rect x="884.206" y="300.053" width="359.611" height="60.3122" fill="#95B3FF"/>
<rect x="884.206" y="360.365" width="359.611" height="59.5583" fill="#95B3FF"/>
<rect x="943.764" y="419.923" width="300.053" height="60.3122" fill="#95B3FF"/>
<rect x="1063.63" y="239.741" width="60.3122" height="60.3122" fill="#95B3FF"/>
<rect x="1063.63" y="119.871" width="60.3122" height="60.3122" fill="#95B3FF"/>
<rect x="1063.63" y="59.5581" width="60.3122" height="60.3122" fill="#95B3FF"/>
<rect x="1123.95" width="60.3122" height="300.053" fill="#95B3FF"/>
<rect x="1184.26" width="59.5583" height="300.053" fill="#95B3FF"/>
</g>
<rect x="1070" y="120.495" width="37.8704" height="41.0263" fill="#707EA2" fill-opacity="0.86"/>
<rect x="1107.87" y="79.4663" width="41.0263" height="41.0263" fill="#707EA2" fill-opacity="0.86"/>
<rect x="1148.89" y="70" width="41.0263" height="41.0263" fill="#707EA2" fill-opacity="0.86"/>
<rect x="1230.95" y="79.4663" width="41.0263" height="41.0263" fill="#707EA2" fill-opacity="0.86"/>
<rect x="1230.95" y="161.52" width="41.0263" height="37.8704" fill="#707EA2" fill-opacity="0.86"/>
<rect x="1189.92" y="174.142" width="41.0263" height="41.0263" fill="#707EA2" fill-opacity="0.86"/>
<rect x="1148.89" y="174.142" width="41.0263" height="41.0263" fill="#707EA2" fill-opacity="0.86"/>
<rect x="1107.87" y="161.52" width="41.0263" height="37.8704" fill="#707EA2" fill-opacity="0.86"/>
<rect x="1271.97" y="120.495" width="41.0263" height="41.0263" fill="#707EA2" fill-opacity="0.86"/>
<rect x="1070" y="240.418" width="37.8704" height="41.0263" fill="#707EA2" fill-opacity="0.86"/>
<rect x="1070" y="199.39" width="37.8704" height="41.0263" fill="#707EA2" fill-opacity="0.86"/>
<rect x="1271.97" y="199.39" width="41.0263" height="41.0263" fill="#707EA2" fill-opacity="0.86"/>
<rect x="1230.95" y="281.443" width="41.0263" height="41.0263" fill="#707EA2" fill-opacity="0.86"/>
<rect x="1189.92" y="294.065" width="41.0263" height="41.0263" fill="#707EA2" fill-opacity="0.86"/>
<rect x="1148.89" y="294.065" width="41.0263" height="41.0263" fill="#707EA2" fill-opacity="0.86"/>
<rect x="1107.87" y="281.443" width="41.0263" height="41.0263" fill="#707EA2" fill-opacity="0.86"/>
<rect x="1271.97" y="240.418" width="41.0263" height="41.0263" fill="#707EA2" fill-opacity="0.86"/>
<rect x="1070" y="363.497" width="37.8704" height="41.0263" fill="#707EA2" fill-opacity="0.86"/>
<rect x="1070" y="322.468" width="37.8704" height="41.0263" fill="#707EA2" fill-opacity="0.86"/>
<rect x="1271.97" y="322.468" width="41.0263" height="41.0263" fill="#707EA2" fill-opacity="0.86"/>
<rect x="1230.95" y="404.521" width="41.0263" height="41.0263" fill="#707EA2" fill-opacity="0.86"/>
<rect x="1189.92" y="417.144" width="41.0263" height="41.0263" fill="#707EA2" fill-opacity="0.86"/>
<rect x="1148.89" y="417.144" width="41.0263" height="41.0263" fill="#707EA2" fill-opacity="0.86"/>
<rect x="1107.87" y="404.521" width="41.0263" height="41.0263" fill="#707EA2" fill-opacity="0.86"/>
<rect x="1271.97" y="363.497" width="41.0263" height="41.0263" fill="#707EA2" fill-opacity="0.86"/>
<rect x="1189.92" y="70" width="41.0263" height="41.0263" fill="#707EA2" fill-opacity="0.86"/>
</svg>
